<svg width="35" height="35" viewBox="0 0 35 35" fill="none" xmlns="http://www.w3.org/2000/svg">
<path d="M31.1111 0H3.88889C1.73056 0 0 1.73056 0 3.88889V11.6667H3.88889V3.88889H31.1111V31.1111H3.88889V23.3333H0V31.1111C0 32.1425 0.409721 33.1317 1.13903 33.861C1.86834 34.5903 2.85749 35 3.88889 35H31.1111C32.1425 35 33.1317 34.5903 33.861 33.861C34.5903 33.1317 35 32.1425 35 31.1111V3.88889C35 1.73056 33.25 0 31.1111 0ZM13.7667 24.4611L16.5278 27.2222L26.25 17.5L16.5278 7.77778L13.7667 10.5194L18.8028 15.5556H0V19.4444H18.8028L13.7667 24.4611Z" fill="white"/>
</svg>
